<svg xmlns="http://www.w3.org/2000/svg" viewBox="0 0 32 32">
  <defs>
    <linearGradient id="catGradient" x1="0%" y1="0%" x2="100%" y2="100%">
      <stop offset="0%" style="stop-color:#ff6b35;stop-opacity:1" />
      <stop offset="50%" style="stop-color:#f7931e;stop-opacity:1" />
      <stop offset="100%" style="stop-color:#ffd700;stop-opacity:1" />
    </linearGradient>
    <radialGradient id="faceGradient" cx="50%" cy="40%" r="60%">
      <stop offset="0%" style="stop-color:#ffeaa7;stop-opacity:1" />
      <stop offset="70%" style="stop-color:#fdcb6e;stop-opacity:1" />
      <stop offset="100%" style="stop-color:#e17055;stop-opacity:1" />
    </radialGradient>
    <radialGradient id="eyeGradient" cx="30%" cy="30%" r="70%">
      <stop offset="0%" style="stop-color:#00d4ff;stop-opacity:1" />
      <stop offset="60%" style="stop-color:#0984e3;stop-opacity:1" />
      <stop offset="100%" style="stop-color:#2d3436;stop-opacity:1" />
    </radialGradient>
    <filter id="softGlow" x="-50%" y="-50%" width="200%" height="200%">
      <feGaussianBlur stdDeviation="1" result="coloredBlur"/>
      <feMerge>
        <feMergeNode in="coloredBlur"/>
        <feMergeNode in="SourceGraphic"/>
      </feMerge>
    </filter>
  </defs>
  
  <!-- Dark background circle for contrast -->
  <circle cx="16" cy="16" r="15" fill="#2d3436" opacity="0.3"/>
  
  <!-- Cat ears -->
  <path d="M6 10 L12 4 L16 12 Z" fill="url(#catGradient)" filter="url(#softGlow)"/>
  <path d="M26 10 L20 4 L16 12 Z" fill="url(#catGradient)" filter="url(#softGlow)"/>
  
  <!-- Inner ear -->
  <path d="M8 9 L11 6 L13 10 Z" fill="#ff4757" opacity="0.8"/>
  <path d="M24 9 L21 6 L19 10 Z" fill="#ff4757" opacity="0.8"/>
  
  <!-- Main face -->
  <ellipse cx="16" cy="18" rx="12" ry="10" fill="url(#faceGradient)" filter="url(#softGlow)"/>
  
  <!-- Eyes (looking directly at camera) -->
  <ellipse cx="12" cy="15" rx="3" ry="3.5" fill="url(#eyeGradient)"/>
  <ellipse cx="20" cy="15" rx="3" ry="3.5" fill="url(#eyeGradient)"/>
  
  <!-- Eye pupils -->
  <ellipse cx="12" cy="15" rx="1.5" ry="2" fill="#2d3436"/>
  <ellipse cx="20" cy="15" rx="1.5" ry="2" fill="#2d3436"/>
  
  <!-- Eye shine/reflection -->
  <ellipse cx="11.5" cy="14" rx="0.7" ry="1" fill="#ffffff" opacity="0.9"/>
  <ellipse cx="19.5" cy="14" rx="0.7" ry="1" fill="#ffffff" opacity="0.9"/>
  
  <!-- Nose -->
  <path d="M16 18 L14.5 20 L17.5 20 Z" fill="#ff4757"/>
  
  <!-- Mouth -->
  <path d="M16 20.5 Q13 22 11 21" fill="none" stroke="#2d3436" stroke-width="2" stroke-linecap="round"/>
  <path d="M16 20.5 Q19 22 21 21" fill="none" stroke="#2d3436" stroke-width="2" stroke-linecap="round"/>
  
  <!-- Whiskers -->
  <line x1="6" y1="17" x2="10" y2="17" stroke="#2d3436" stroke-width="1.5" stroke-linecap="round"/>
  <line x1="6" y1="19" x2="10" y2="18.5" stroke="#2d3436" stroke-width="1.5" stroke-linecap="round"/>
  <line x1="6" y1="21" x2="10" y2="20" stroke="#2d3436" stroke-width="1.5" stroke-linecap="round"/>
  
  <line x1="26" y1="17" x2="22" y2="17" stroke="#2d3436" stroke-width="1.5" stroke-linecap="round"/>
  <line x1="26" y1="19" x2="22" y2="18.5" stroke="#2d3436" stroke-width="1.5" stroke-linecap="round"/>
  <line x1="26" y1="21" x2="22" y2="20" stroke="#2d3436" stroke-width="1.5" stroke-linecap="round"/>
  
  <!-- Cheek spots for extra cuteness -->
  <circle cx="9" cy="19" r="1" fill="#ff7675" opacity="0.6"/>
  <circle cx="23" cy="19" r="1" fill="#ff7675" opacity="0.6"/>
</svg>